<svg id="Layer_1" data-name="Layer 1" xmlns="http://www.w3.org/2000/svg" viewBox="0 0 1920 600"><defs><style>.cls-1{fill:#f5e9ce;stroke:#d69a37;stroke-miterlimit:10;stroke-width:3px;}</style></defs><title>chart</title><path class="cls-1" d="M-484.26,452.28l16.93-1.9a131.07,131.07,0,0,1,15.87-.79l74.74.84a128.94,128.94,0,0,0,13.05-.51l82.79-7.42,64.84-3.63c16-.9,31.23-4.71,44-11l39-19.22c19.53-9.62,44.48-13.29,68.47-10.07l28.73,3.86A128.7,128.7,0,0,0,9,400.57l39.61-8.88a128.61,128.61,0,0,1,55.3,0l31.25,7a128,128,0,0,0,60.08-1.17l46.8-12.58a124,124,0,0,1,26.6-4.06l54.47-2.44A119.15,119.15,0,0,0,362,370.28l50.15-20.22a121.29,121.29,0,0,1,46.21-8.28l52.08.58a128.61,128.61,0,0,0,24-2l44.84-8c21-3.76,43.35-2.14,62.54,4.53l22.69,7.87c23.16,8,50.73,8.67,74.69,1.69l37.52-10.92a123.37,123.37,0,0,1,28.86-4.7l65.71-2.94A126.32,126.32,0,0,0,888.06,326l56.42-10.11a129,129,0,0,1,49,.75l40.67,8.66a129,129,0,0,0,49,.75l50-8.95a129.1,129.1,0,0,1,29.84-1.78l54.85,3.07a127.3,127.3,0,0,0,37.36-3.38l67.73-16.69q3.46-.86,6.8-1.9l75.13-23.56a96.59,96.59,0,0,0,19.77-8.6l62.15-36.2c11.89-6.92,26.53-11.52,42.24-13.28l39.09-4.38c17-1.91,32.75-7.15,45.08-15l48-30.62c14.44-9.22,33.46-14.79,53.65-15.69l50.19-2.25a128.33,128.33,0,0,0,15.4-1.62l71.26-12a128,128,0,0,1,21.23-1.76h63a126.25,126.25,0,0,0,30.08-3.58l53.08-13.08a128,128,0,0,1,44.5-2.78l34.69,3.88c20.47,2.29,41.51-.37,59.16-7.48l42.67-17.21A120.12,120.12,0,0,1,2241.74,83l60.9-1.36c3.85-.09,7.69-.34,11.49-.77l73.52-8.23A129,129,0,0,1,2407.9,72h0c44.54,2,79.1,26.08,79.1,55.12V552.24c0,30.52-38,55.26-84.94,55.26H-476c-49.85,0-89-27.79-84.62-60.09l6.15-45.51C-551.09,476.91-522.26,456.53-484.26,452.28Z"/></svg>