<!--?xml version="1.0" standalone="no"?-->
              <svg id="sw-js-blob-svg" viewBox="0 0 100 100" xmlns="http://www.w3.org/2000/svg" version="1.1">
                    <defs> 
                        <linearGradient id="sw-gradient" x1="0" x2="1" y1="1" y2="0">
                            <stop id="stop1" stop-color="rgba(55, 179.998, 248, 1)" offset="0%"></stop>
                            <stop id="stop2" stop-color="rgba(31, 195.845, 251, 1)" offset="100%"></stop>
                        </linearGradient>
                    </defs>
                <path fill="url(#sw-gradient)" d="M23.8,-26.8C30.3,-22.9,34.7,-14.9,37.5,-5.6C40.3,3.6,41.5,14.2,37.7,22.6C33.8,31.1,24.9,37.6,15.3,40.4C5.6,43.3,-4.8,42.5,-11.7,37.7C-18.7,32.8,-22.2,23.8,-26,15.7C-29.9,7.6,-34,0.4,-34.6,-7.8C-35.2,-16,-32.1,-25.4,-25.8,-29.3C-19.4,-33.2,-9.7,-31.7,-0.5,-31.1C8.6,-30.5,17.3,-30.7,23.8,-26.8Z" width="100%" height="100%" transform="translate(50 50)" stroke-width="0" style="transition: all 0.3s ease 0s;"></path>
              </svg>