<svg xmlns="http://www.w3.org/2000/svg" width="31" height="31" fill="none" viewBox="0 0 31 31"><g filter="url(#filter0_d)"><path fill="red" fill-opacity=".01" d="M15.4608 18.5934C20.3046 18.5934 24.2313 14.6667 24.2313 9.82295C24.2313 4.97916 20.3046 1.05249 15.4608 1.05249C10.617 1.05249 6.69037 4.97916 6.69037 9.82295C6.69037 14.6667 10.617 18.5934 15.4608 18.5934Z"/></g><path fill="#6D72F6" stroke="#6D72F6" stroke-linecap="round" stroke-miterlimit="10" stroke-width="1.8" d="M15.4608 18.5934C20.3046 18.5934 24.2313 14.6667 24.2313 9.82295C24.2313 4.97916 20.3046 1.05249 15.4608 1.05249C10.617 1.05249 6.69037 4.97916 6.69037 9.82295C6.69037 14.6667 10.617 18.5934 15.4608 18.5934Z"/><path stroke="url(#paint0_linear)" stroke-linecap="round" stroke-miterlimit="10" stroke-width="1.8" d="M15.2529 6.18579V10.571H19.6381"/><defs><filter id="filter0_d" width="29.541" height="29.541" x=".69" y="1.052" color-interpolation-filters="sRGB" filterUnits="userSpaceOnUse"><feFlood flood-opacity="0" result="BackgroundImageFix"/><feColorMatrix in="SourceAlpha" type="matrix" values="0 0 0 0 0 0 0 0 0 0 0 0 0 0 0 0 0 0 127 0"/><feOffset dy="6"/><feGaussianBlur stdDeviation="3"/><feColorMatrix type="matrix" values="0 0 0 0 0.428267 0 0 0 0 0.446907 0 0 0 0 0.964164 0 0 0 0.26 0"/><feBlend in2="BackgroundImageFix" mode="normal" result="effect1_dropShadow"/><feBlend in="SourceGraphic" in2="effect1_dropShadow" mode="normal" result="shape"/></filter><linearGradient id="paint0_linear" x1="17.445" x2="17.445" y1="6.186" y2="10.571" gradientUnits="userSpaceOnUse"><stop stop-color="#fff" stop-opacity=".73"/><stop offset="1" stop-color="#fff"/></linearGradient></defs></svg>