<svg xmlns="http://www.w3.org/2000/svg" width="32" height="32" fill="none" viewBox="0 0 32 32"><path fill="url(#paint0_linear)" d="M4.29883 1.35787C4.29883 0.767532 5.00564 0.464266 5.43346 0.871041L14.5071 9.49817C15.1406 10.1005 15.4993 10.9364 15.4993 11.8106V31.0437C15.4993 31.7822 14.6146 32.1611 14.0801 31.6515L5.49603 23.4671C4.73147 22.7382 4.29883 21.7279 4.29883 20.6715V1.35787Z"/><path fill="url(#paint1_linear)" d="M8.49804 1.21629C8.0541 0.799675 8.34892 0.0546875 8.95773 0.0546875H24.4409C25.7394 0.0546875 26.7921 1.10734 26.7921 2.40585V19.7179C26.7921 21.1092 25.6642 22.237 24.273 22.237H18.5891C17.8471 22.237 17.2456 21.6355 17.2456 20.8935V10.8796C17.2456 9.95176 16.8618 9.06527 16.1852 8.43036L8.49804 1.21629Z"/><defs><linearGradient id="paint0_linear" x1="9.899" x2="9.899" y1="-.208" y2="25.673" gradientUnits="userSpaceOnUse"><stop stop-color="#B7BAFF"/><stop offset="1" stop-color="#767BFE"/></linearGradient><linearGradient id="paint1_linear" x1="17.026" x2="22.113" y1=".055" y2="21.363" gradientUnits="userSpaceOnUse"><stop stop-color="#888CFF"/><stop offset="1" stop-color="#6065EC"/></linearGradient></defs></svg>