<svg width="24" height="24" viewBox="0 0 24 24" fill="none" xmlns="http://www.w3.org/2000/svg">
<path fill-rule="evenodd" clip-rule="evenodd" d="M16.8 5.76001H11.04C10.7749 5.76001 10.56 5.97491 10.56 6.24001V10.08C10.56 10.3451 10.7749 10.56 11.04 10.56H16.8C17.0651 10.56 17.28 10.3451 17.28 10.08V6.24001C17.28 5.97491 17.0651 5.76001 16.8 5.76001ZM16.32 9.60001H11.52V6.72001H16.32V9.60001Z" fill="#808191"/>
<path d="M11.52 9.60001H11.27C11.27 9.73808 11.3819 9.85001 11.52 9.85001V9.60001ZM16.32 9.60001V9.85001C16.4581 9.85001 16.57 9.73808 16.57 9.60001H16.32ZM11.52 6.72001V6.47001C11.3819 6.47001 11.27 6.58194 11.27 6.72001H11.52ZM16.32 6.72001H16.57C16.57 6.58194 16.4581 6.47001 16.32 6.47001V6.72001ZM11.04 6.01001H16.8V5.51001H11.04V6.01001ZM10.81 6.24001C10.81 6.11298 10.913 6.01001 11.04 6.01001V5.51001C10.6368 5.51001 10.31 5.83684 10.31 6.24001H10.81ZM10.81 10.08V6.24001H10.31V10.08H10.81ZM11.04 10.31C10.913 10.31 10.81 10.207 10.81 10.08H10.31C10.31 10.4832 10.6368 10.81 11.04 10.81V10.31ZM16.8 10.31H11.04V10.81H16.8V10.31ZM17.03 10.08C17.03 10.207 16.927 10.31 16.8 10.31V10.81C17.2032 10.81 17.53 10.4832 17.53 10.08H17.03ZM17.03 6.24001V10.08H17.53V6.24001H17.03ZM16.8 6.01001C16.927 6.01001 17.03 6.11298 17.03 6.24001H17.53C17.53 5.83684 17.2032 5.51001 16.8 5.51001V6.01001ZM11.52 9.85001H16.32V9.35001H11.52V9.85001ZM11.27 6.72001V9.60001H11.77V6.72001H11.27ZM16.32 6.47001H11.52V6.97001H16.32V6.47001ZM16.57 9.60001V6.72001H16.07V9.60001H16.57Z" fill="#808191"/>
<path fill-rule="evenodd" clip-rule="evenodd" d="M18.72 1.92004H5.28C4.48471 1.92004 3.84 2.56475 3.84 3.36004V18.72C3.84 20.5757 5.34432 22.08 7.2 22.08H16.8C18.6557 22.08 20.16 20.5757 20.16 18.72V3.36004C20.16 2.56475 19.5153 1.92004 18.72 1.92004ZM7.68 2.88004H5.28C5.0149 2.88004 4.8 3.09495 4.8 3.36004V18.72C4.8 20.0455 5.87451 21.12 7.2 21.12H7.68V2.88004ZM8.64 2.88004V21.12H16.8C18.1255 21.12 19.2 20.0455 19.2 18.72V3.36004C19.2 3.09495 18.9851 2.88004 18.72 2.88004H8.64Z" fill="#808191"/>
<path d="M7.68 2.88004H7.93C7.93 2.74197 7.81807 2.63004 7.68 2.63004V2.88004ZM7.68 21.12V21.37C7.81807 21.37 7.93 21.2581 7.93 21.12H7.68ZM8.64 21.12H8.39C8.39 21.2581 8.50193 21.37 8.64 21.37V21.12ZM8.64 2.88004V2.63004C8.50193 2.63004 8.39 2.74197 8.39 2.88004H8.64ZM5.28 2.17004H18.72V1.67004H5.28V2.17004ZM4.09 3.36004C4.09 2.70283 4.62278 2.17004 5.28 2.17004V1.67004C4.34664 1.67004 3.59 2.42668 3.59 3.36004H4.09ZM4.09 18.72V3.36004H3.59V18.72H4.09ZM7.2 21.83C5.48239 21.83 4.09 20.4376 4.09 18.72H3.59C3.59 20.7138 5.20625 22.33 7.2 22.33V21.83ZM16.8 21.83H7.2V22.33H16.8V21.83ZM19.91 18.72C19.91 20.4376 18.5176 21.83 16.8 21.83V22.33C18.7937 22.33 20.41 20.7138 20.41 18.72H19.91ZM19.91 3.36004V18.72H20.41V3.36004H19.91ZM18.72 2.17004C19.3772 2.17004 19.91 2.70283 19.91 3.36004H20.41C20.41 2.42668 19.6534 1.67004 18.72 1.67004V2.17004ZM5.28 3.13004H7.68V2.63004H5.28V3.13004ZM5.05 3.36004C5.05 3.23302 5.15297 3.13004 5.28 3.13004V2.63004C4.87683 2.63004 4.55 2.95688 4.55 3.36004H5.05ZM5.05 18.72V3.36004H4.55V18.72H5.05ZM7.2 20.87C6.01258 20.87 5.05 19.9075 5.05 18.72H4.55C4.55 20.1836 5.73644 21.37 7.2 21.37V20.87ZM7.68 20.87H7.2V21.37H7.68V20.87ZM7.43 2.88004V21.12H7.93V2.88004H7.43ZM8.89 21.12V2.88004H8.39V21.12H8.89ZM16.8 20.87H8.64V21.37H16.8V20.87ZM18.95 18.72C18.95 19.9075 17.9874 20.87 16.8 20.87V21.37C18.2636 21.37 19.45 20.1836 19.45 18.72H18.95ZM18.95 3.36004V18.72H19.45V3.36004H18.95ZM18.72 3.13004C18.847 3.13004 18.95 3.23302 18.95 3.36004H19.45C19.45 2.95688 19.1232 2.63004 18.72 2.63004V3.13004ZM8.64 3.13004H18.72V2.63004H8.64V3.13004Z" fill="#808191"/>
</svg>
