<svg xmlns="http://www.w3.org/2000/svg" width="29" height="33" fill="none" viewBox="0 0 29 33"><g filter="url(#filter0_d)"><circle cx="15.096" cy="7.834" r="5.002" fill="url(#paint0_linear)"/><path fill="#FF1212" fill-opacity=".01" d="M14.8925 0.0336914C12.7725 0.0361418 10.7402 0.879359 9.24116 2.37837C7.74215 3.87737 6.89893 5.90976 6.89648 8.02967C6.89648 13.5402 12.3994 18.5406 14.0853 19.942C14.312 20.1303 14.5974 20.2334 14.892 20.2334C15.1867 20.2334 15.4721 20.1303 15.6988 19.942C17.3822 18.5406 22.8884 13.5385 22.8884 8.02883C22.8858 5.90906 22.0424 3.87689 20.5435 2.37807C19.0445 0.879243 17.0122 0.0361414 14.8925 0.0336914V0.0336914ZM14.8925 12.2381C14.0601 12.2381 13.2465 11.9913 12.5544 11.5288C11.8623 11.0664 11.3229 10.4091 11.0044 9.64016C10.6859 8.87117 10.6025 8.025 10.7649 7.20865C10.9273 6.3923 11.3281 5.64243 11.9167 5.05387C12.5052 4.46532 13.2551 4.0645 14.0714 3.90212C14.8878 3.73974 15.734 3.82308 16.5029 4.14161C17.2719 4.46013 17.9292 4.99953 18.3916 5.6916C18.8541 6.38367 19.1009 7.19732 19.1009 8.02967C19.1009 8.58232 18.992 9.12957 18.7805 9.64016C18.569 10.1507 18.259 10.6147 17.8683 11.0055C17.4775 11.3962 17.0135 11.7062 16.5029 11.9177C15.9924 12.1292 15.4451 12.2381 14.8925 12.2381V12.2381Z"/></g><circle cx="15.096" cy="7.834" r="5.002" fill="url(#paint1_linear)"/><path fill="#6D72F6" d="M14.8925 0.0336914C12.7725 0.0361418 10.7402 0.879359 9.24116 2.37837C7.74215 3.87737 6.89893 5.90976 6.89648 8.02967C6.89648 13.5402 12.3994 18.5406 14.0853 19.942C14.312 20.1303 14.5974 20.2334 14.892 20.2334C15.1867 20.2334 15.4721 20.1303 15.6988 19.942C17.3822 18.5406 22.8884 13.5385 22.8884 8.02883C22.8858 5.90906 22.0424 3.87689 20.5435 2.37807C19.0445 0.879243 17.0122 0.0361414 14.8925 0.0336914V0.0336914ZM14.8925 12.2381C14.0601 12.2381 13.2465 11.9913 12.5544 11.5288C11.8623 11.0664 11.3229 10.4091 11.0044 9.64016C10.6859 8.87117 10.6025 8.025 10.7649 7.20865C10.9273 6.3923 11.3281 5.64243 11.9167 5.05387C12.5052 4.46532 13.2551 4.0645 14.0714 3.90212C14.8878 3.73974 15.734 3.82308 16.5029 4.14161C17.2719 4.46013 17.9292 4.99953 18.3916 5.6916C18.8541 6.38367 19.1009 7.19732 19.1009 8.02967C19.1009 8.58232 18.992 9.12957 18.7805 9.64016C18.569 10.1507 18.259 10.6147 17.8683 11.0055C17.4775 11.3962 17.0135 11.7062 16.5029 11.9177C15.9924 12.1292 15.4451 12.2381 14.8925 12.2381V12.2381Z"/><defs><filter id="filter0_d" width="27.992" height="32.2" x=".896" y=".034" color-interpolation-filters="sRGB" filterUnits="userSpaceOnUse"><feFlood flood-opacity="0" result="BackgroundImageFix"/><feColorMatrix in="SourceAlpha" type="matrix" values="0 0 0 0 0 0 0 0 0 0 0 0 0 0 0 0 0 0 127 0"/><feOffset dy="6"/><feGaussianBlur stdDeviation="3"/><feColorMatrix type="matrix" values="0 0 0 0 0.428267 0 0 0 0 0.446907 0 0 0 0 0.964164 0 0 0 0.26 0"/><feBlend in2="BackgroundImageFix" mode="normal" result="effect1_dropShadow"/><feBlend in="SourceGraphic" in2="effect1_dropShadow" mode="normal" result="shape"/></filter><linearGradient id="paint0_linear" x1="15.096" x2="15.096" y1="2.831" y2="12.836" gradientUnits="userSpaceOnUse"><stop stop-color="#EAEBFF"/><stop offset="1" stop-color="#fff"/></linearGradient><linearGradient id="paint1_linear" x1="15.096" x2="15.096" y1="2.831" y2="12.836" gradientUnits="userSpaceOnUse"><stop stop-color="#EAEBFF"/><stop offset="1" stop-color="#fff"/></linearGradient></defs></svg>